<svg id="visual" viewBox="0 0 900 600" width="900" height="600" xmlns="http://www.w3.org/2000/svg" xmlns:xlink="http://www.w3.org/1999/xlink" version="1.1"><rect x="0" y="0" width="900" height="600" fill="#44417e"></rect><defs><linearGradient id="grad1_0" x1="33.3%" y1="0%" x2="100%" y2="100%"><stop offset="20%" stop-color="#44417e" stop-opacity="1"></stop><stop offset="80%" stop-color="#44417e" stop-opacity="1"></stop></linearGradient></defs><defs><linearGradient id="grad2_0" x1="0%" y1="0%" x2="66.7%" y2="100%"><stop offset="20%" stop-color="#44417e" stop-opacity="1"></stop><stop offset="80%" stop-color="#44417e" stop-opacity="1"></stop></linearGradient></defs><g transform="translate(900, 0)"><path d="M0 189.3C-21 172.4 -42.1 155.6 -58.9 142.3C-75.8 129 -88.5 119.2 -109.6 109.6C-130.7 100 -160.2 90.7 -174.9 72.4C-189.6 54.2 -189.4 27.1 -189.3 0L0 0Z" fill="#FBAE3C"></path></g><g transform="translate(0, 600)"><path d="M0 -189.3C20 -176.5 40 -163.8 65.1 -157.1C90.1 -150.3 120.4 -149.6 133.8 -133.8C147.3 -118.1 144.1 -87.2 150.6 -62.4C157 -37.6 173.2 -18.8 189.3 0L0 0Z" fill="#FBAE3C"></path></g></svg>